<svg xmlns="http://www.w3.org/2000/svg" height="20" width="20" viewBox="0 0 20 20"><title>20 nut</title><g fill="currentColor" class="nc-icon-wrapper"><path d="m17.801,8.605l-2.857-4.688c-.533-.874-1.531-1.417-2.604-1.417h-4.679c-1.074,0-2.072.543-2.604,1.417l-2.858,4.688c-.262.43-.393.913-.393,1.395s.131.965.393,1.395l2.857,4.688c.533.874,1.531,1.417,2.604,1.417h4.679c1.074,0,2.072-.543,2.604-1.417l2.858-4.688c.523-.861.524-1.93,0-2.791Zm-7.801,4.395c-1.657,0-3-1.343-3-3s1.343-3,3-3,3,1.343,3,3-1.343,3-3,3Z" stroke-width="0" fill="currentColor"></path></g></svg>